<svg width="572" height="556" viewBox="0 0 572 556" fill="none" xmlns="http://www.w3.org/2000/svg">
<path opacity="0.0526316" d="M44.4418 449.016C56.511 465.073 95.0855 491.943 152.83 470.965C225.01 444.742 252.926 375.232 317.348 339.19C364.896 312.588 492.66 272.658 566.127 316.782" stroke="white" stroke-width="3"/>
<path opacity="0.105263" d="M32.5373 415.354C42.8619 432.585 78.4164 463.339 138.037 448.512C212.563 429.977 247.592 363.766 315.429 334.656C365.497 313.17 496.735 286.813 565.187 338.375" stroke="white" stroke-width="3"/>
<path opacity="0.157895" d="M23.5437 381.238C32.0107 399.454 64.1557 433.756 125 425.242C201.055 414.599 242.813 352.412 313.321 330.552C365.36 314.418 498.635 301.924 561.322 360.358" stroke="white" stroke-width="3"/>
<path opacity="0.210526" d="M17.4927 346.975C24.0093 365.976 52.3926 403.45 113.793 401.342C190.544 398.708 238.574 341.227 310.98 326.856C364.422 316.25 498.272 317.755 554.507 382.422" stroke="white" stroke-width="3"/>
<path opacity="0.263158" d="M14.3835 312.872C18.8782 332.45 43.1889 372.686 104.474 377.008C181.079 382.411 234.854 330.265 308.366 323.542C362.623 318.58 495.583 334.068 544.751 404.258" stroke="white" stroke-width="3"/>
<path opacity="0.315789" d="M14.1832 279.237C16.6069 299.178 36.5786 341.735 97.0757 352.439C172.697 365.819 231.628 319.58 305.44 320.578C359.919 321.315 490.531 350.616 532.093 425.561" stroke="white" stroke-width="3"/>
<path opacity="0.368421" d="M16.8269 246.371C17.153 266.456 32.5669 310.867 91.6137 327.837C165.422 349.048 228.864 309.222 302.167 317.93C356.27 324.357 483.104 367.151 516.604 446.03" stroke="white" stroke-width="3"/>
<path opacity="0.421053" d="M22.2187 214.568C20.4436 234.577 31.1308 280.356 88.0804 303.405C159.267 332.215 226.524 299.239 298.516 315.561C351.651 327.608 473.317 383.425 498.388 465.374" stroke="white" stroke-width="3"/>
<path opacity="0.473684" d="M30.2325 184.108C26.3757 203.822 32.2191 250.467 86.4474 279.343C154.233 315.436 224.568 289.671 294.459 313.429C346.044 330.964 461.209 399.193 477.577 483.314" stroke="white" stroke-width="3"/>
<path opacity="0.526316" d="M40.7136 155.259C34.8172 174.461 35.7528 221.462 86.6659 255.848C150.307 298.829 222.951 280.557 289.975 311.491C339.445 334.322 446.847 414.215 454.332 499.585" stroke="white" stroke-width="3"/>
<path opacity="0.578947" d="M53.4799 128.268C45.6087 146.749 41.6262 193.59 88.6661 233.109C147.466 282.508 221.621 271.929 285.046 309.699C331.857 337.576 430.32 428.258 428.841 513.943" stroke="white" stroke-width="3"/>
<path opacity="0.631579" d="M68.3247 103.367C58.5648 120.923 49.708 167.092 92.3593 211.311C145.674 266.585 220.529 263.816 279.657 308.008C323.298 340.626 411.743 441.103 401.316 526.165" stroke="white" stroke-width="3"/>
<path opacity="0.684211" d="M85.0183 80.759C73.4767 97.1994 59.8424 142.189 97.638 190.624C144.882 251.168 219.617 256.239 273.802 306.37C313.795 343.371 391.252 452.542 371.991 536.048" stroke="white" stroke-width="3"/>
<path opacity="0.736842" d="M103.311 60.6251C90.1139 75.769 71.8517 119.087 104.377 171.208C145.034 236.359 218.829 249.213 267.478 304.733C303.384 345.712 369.005 462.382 341.12 543.417" stroke="white" stroke-width="3"/>
<path opacity="0.789474" d="M122.935 43.1205C108.227 56.802 85.537 97.9738 112.436 153.209C146.06 222.253 218.108 242.75 260.686 303.052C292.112 347.559 345.179 470.449 308.976 548.125" stroke="white" stroke-width="3"/>
<path opacity="0.842105" d="M143.608 28.3679C127.551 40.4371 100.682 79.0116 121.66 136.756C147.883 208.936 217.393 236.852 253.434 301.274C280.036 348.822 319.966 476.586 275.843 550.053" stroke="white" stroke-width="3"/>
<path opacity="0.894737" d="M165.037 16.4633C147.807 26.7879 117.052 62.3424 131.88 121.963C150.414 196.489 216.625 231.518 245.736 299.355C267.221 349.423 293.578 480.661 242.017 549.113" stroke="white" stroke-width="3"/>
<path opacity="0.947368" d="M186.921 7.46973C168.705 15.9367 134.403 48.0817 142.917 108.926C153.56 184.981 215.747 226.739 237.607 297.247C253.741 349.287 266.236 482.561 207.802 545.248" stroke="white" stroke-width="3"/>
<path d="M208.952 1.41895C189.951 7.93553 152.476 36.3189 154.584 97.7195C157.219 174.47 214.7 222.5 229.07 294.906C239.677 348.348 238.171 482.198 173.505 538.434" stroke="white" stroke-width="3"/>
</svg>
