<svg width="18822" height="19131" viewBox="0 0 18822 19131" fill="none" xmlns="http://www.w3.org/2000/svg">
<path d="M4.06055 6507.24C1000.24 5965.59 1312.05 6539.05 2308.23 5997.41C3304.41 5455.76 2992.61 4882.29 3988.5 4340.8C4984.4 3799.31 5296.49 4372.62 6292.67 3830.97C7288.86 3289.33 6977.05 2715.86 7973.23 2174.21C8969.41 1632.57 9281.22 2206.03 10277.7 1664.23C11274.2 1122.43 10962.1 549.116 11958.2 7.46874" stroke="#27FD07" stroke-width="17" stroke-miterlimit="10"/>
<path d="M2499.78 11097.3C3495.96 10555.6 3807.77 11129.1 4803.95 10587.5C5800.13 10045.8 5488.33 9472.35 6484.22 8930.86C7480.12 8389.36 7792.21 8962.67 8788.39 8421.03C9784.58 7879.38 9472.77 7305.91 10469 6764.27C11465.1 6222.62 11776.9 6796.08 12773.4 6254.28C13769.9 5712.48 13457.8 5139.17 14454 4597.52" stroke="#27FD07" stroke-width="17" stroke-miterlimit="10"/>
<path d="M1251.92 8802.26C2248.1 8260.62 2559.91 8834.08 3556.09 8292.43C4552.27 7750.79 4240.47 7177.32 5236.36 6635.83C6232.26 6094.34 6544.35 6667.65 7540.53 6126C8536.72 5584.35 8224.91 5010.89 9221.09 4469.24C10217.3 3927.59 10529.1 4501.06 11525.5 3959.26C12522 3417.45 12209.9 2844.14 13206.1 2302.5" stroke="#27FD07" stroke-width="17" stroke-miterlimit="10"/>
<path d="M3747.64 13392.3C4743.82 12850.7 5056.26 13425.3 6052.44 12883.7C7048.63 12342 6736.19 11767.4 7732.08 11225.9C8727.98 10684.4 9040.7 11258.9 10036.9 10717.2C11033.1 10175.6 10720.6 9600.94 11716.8 9059.29C12713 8517.65 13025.4 9092.28 14021.9 8550.47C15018.4 8008.67 14705.6 7434.2 15701.8 6892.55" stroke="#27FD07" stroke-width="17" stroke-miterlimit="10"/>
<path d="M5463.84 16548.7C6460.02 16007.1 6771.83 16580.5 7768.01 16038.9C8764.2 15497.2 8452.39 14923.8 9448.28 14382.3C10444.2 13840.8 10756.3 14414.1 11752.5 13872.4C12748.6 13330.8 12436.8 12757.3 13433 12215.7C14429.2 11674 14741 12247.5 15737.5 11705.7C16733.9 11163.9 16421.8 10590.6 17418 10048.9" stroke="#27FD07" stroke-width="17" stroke-miterlimit="10"/>
<path d="M627.674 7654.17C1623.86 7112.52 1936.3 7687.15 2932.48 7145.5C3928.66 6603.86 3616.22 6029.23 4612.12 5487.73C5608.01 4946.24 5920.74 5520.72 6916.92 4979.07C7913.1 4437.42 7600.66 3862.79 8596.85 3321.15C9593.03 2779.5 9905.47 3354.13 10901.9 2812.33C11898.4 2270.52 11585.7 1696.05 12581.9 1154.4" stroke="#27FD07" stroke-width="17" stroke-miterlimit="10"/>
<path d="M3124.03 12245.4C4120.21 11703.7 4432.02 12277.2 5428.2 11735.6C6424.38 11193.9 6112.57 10620.4 7108.47 10079C8104.37 9537.46 8416.46 10110.8 9412.64 9569.12C10408.8 9027.47 10097 8454.01 11093.2 7912.36C12089.4 7370.72 12401.2 7944.18 13397.7 7402.38C14394.1 6860.57 14082 6287.26 15078.2 5745.62" stroke="#27FD07" stroke-width="17" stroke-miterlimit="10"/>
<path d="M1876.16 9950.36C2872.35 9408.71 3184.15 9982.18 4180.33 9440.53C5176.52 8898.88 4864.71 8325.42 5860.61 7783.93C6856.5 7242.43 7168.6 7815.74 8164.78 7274.1C9160.96 6732.45 8849.15 6158.98 9845.34 5617.34C10841.5 5075.69 11153.3 5649.15 12149.8 5107.35C13146.3 4565.55 12834.2 3992.24 13830.4 3450.59" stroke="#27FD07" stroke-width="17" stroke-miterlimit="10"/>
<path d="M4371.89 14540.4C5368.07 13998.8 5679.88 14572.2 6676.06 14030.6C7672.24 13488.9 7360.43 12915.5 8356.33 12374C9352.23 11832.5 9664.32 12405.8 10660.5 11864.2C11656.7 11322.5 11344.9 10749 12341.1 10207.4C13337.2 9665.74 13649 10239.2 14645.5 9697.41C15642 9155.6 15329.9 8582.29 16326.1 8040.65" stroke="#27FD07" stroke-width="17" stroke-miterlimit="10"/>
<path d="M6087.46 17695.6C7083.64 17154 7396.08 17728.6 8392.26 17187C9388.44 16645.3 9076 16070.7 10071.9 15529.2C11067.8 14987.7 11380.5 15562.2 12376.7 15020.5C13372.9 14478.9 13060.4 13904.3 14056.6 13362.6C15052.8 12821 15365.2 13395.6 16361.7 12853.8C17358.2 12312 17045.5 11737.5 18041.6 11195.9" stroke="#27FD07" stroke-width="17" stroke-miterlimit="10"/>
<path d="M315.865 7080.7C1312.05 6539.05 1623.85 7112.52 2620.04 6570.87C3616.22 6029.22 3304.41 5455.76 4300.31 4914.27C5296.2 4372.78 5608.3 4946.09 6604.48 4404.44C7600.66 3862.79 7288.85 3289.33 8285.04 2747.68C9281.22 2206.03 9593.03 2779.5 10589.5 2237.69C11586 1695.89 11273.9 1122.58 12270.1 580.934" stroke="#27FD07" stroke-width="17" stroke-miterlimit="10"/>
<path d="M2811.59 11670.8C3807.77 11129.1 4120.21 11703.7 5116.39 11162.1C6112.57 10620.4 5800.13 10045.8 6796.03 9504.32C7791.92 8962.83 8104.65 9537.3 9100.83 8995.66C10097 8454.01 9784.58 7879.38 10780.8 7337.73C11776.9 6796.08 12089.4 7370.71 13085.8 6828.91C14082.3 6287.11 13769.6 5712.63 14765.8 5170.99" stroke="#27FD07" stroke-width="17" stroke-miterlimit="10"/>
<path d="M1563.73 9375.73C2559.91 8834.08 2872.35 9408.71 3868.53 8867.06C4864.72 8325.42 4552.28 7750.79 5548.17 7209.3C6544.07 6667.8 6856.79 7242.28 7852.98 6700.63C8849.16 6158.98 8536.72 5584.35 9532.9 5042.71C10529.1 4501.06 10841.5 5075.69 11838 4533.89C12834.5 3992.08 12521.7 3417.61 13517.9 2875.96" stroke="#27FD07" stroke-width="17" stroke-miterlimit="10"/>
<path d="M4060.08 13966.9C5056.26 13425.3 5368.07 13998.8 6364.25 13457.1C7360.43 12915.5 7048.63 12342 8044.52 11800.5C9040.42 11259 9352.51 11832.3 10348.7 11290.7C11344.9 10749 11033.1 10175.6 12029.2 9633.92C13025.4 9092.28 13337.2 9665.74 14333.7 9123.94C15330.2 8582.13 15018.1 8008.83 16014.3 7467.18" stroke="#27FD07" stroke-width="17" stroke-miterlimit="10"/>
<path d="M5775.65 17122.2C6771.83 16580.5 7083.64 17154 8079.82 16612.3C9076 16070.7 8764.2 15497.2 9760.09 14955.7C10756 14414.2 11068.1 14987.6 12064.3 14445.9C13060.4 13904.3 12748.6 13330.8 13744.8 12789.1C14741 12247.5 15052.8 12821 16049.3 12279.2C17045.7 11737.4 16733.7 11164.1 17729.8 10622.4" stroke="#27FD07" stroke-width="17" stroke-miterlimit="10"/>
<path d="M940.113 8228.8C1936.3 7687.15 2248.1 8260.61 3244.28 7718.97C4240.47 7177.32 3928.66 6603.85 4924.56 6062.36C5920.45 5520.87 6232.54 6094.18 7228.73 5552.53C8224.91 5010.89 7913.1 4437.42 8909.28 3895.77C9905.47 3354.13 10217.3 3927.59 11213.7 3385.79C12210.2 2843.99 11898.1 2270.68 12894.3 1729.03" stroke="#27FD07" stroke-width="17" stroke-miterlimit="10"/>
<path d="M3435.83 12818.9C4432.02 12277.2 4743.82 12850.7 5740 12309C6736.19 11767.4 6424.38 11193.9 7420.28 10652.4C8416.17 10110.9 8728.27 10684.2 9724.45 10142.6C10720.6 9600.94 10408.8 9027.48 11405 8485.83C12401.2 7944.18 12713 8517.65 13709.5 7975.84C14705.9 7434.04 14393.8 6860.73 15390 6319.08" stroke="#27FD07" stroke-width="17" stroke-miterlimit="10"/>
<path d="M5152.04 15975.2C6148.22 15433.6 6460.02 16007.1 7456.21 15465.4C8452.39 14923.8 8140.58 14350.3 9136.48 13808.8C10132.4 13267.3 10444.5 13840.6 11440.6 13299C12436.8 12757.3 12125 12183.9 13121.2 11642.2C14117.4 11100.6 14429.2 11674 15425.7 11132.2C16422.1 10590.4 16110 10017.1 17106.2 9475.47" stroke="#27FD07" stroke-width="17" stroke-miterlimit="10"/>
<path d="M2187.97 10523.8C3184.15 9982.18 3495.96 10555.6 4492.14 10014C5488.33 9472.35 5176.52 8898.88 6172.42 8357.39C7168.31 7815.9 7480.4 8389.21 8476.59 7847.56C9472.77 7305.91 9160.96 6732.45 10157.1 6190.8C11153.3 5649.15 11465.1 6222.62 12461.6 5680.82C13458.1 5139.01 13146 4565.7 14142.2 4024.06" stroke="#27FD07" stroke-width="17" stroke-miterlimit="10"/>
<path d="M4683.69 15113.9C5679.87 14572.2 5991.68 15145.7 6987.86 14604C7984.04 14062.4 7672.24 13488.9 8668.13 12947.4C9664.03 12406 9976.12 12979.3 10972.3 12437.6C11968.5 11896 11656.7 11322.5 12652.9 10780.9C13649 10239.2 13960.8 10812.7 14957.3 10270.9C15953.8 9729.07 15641.7 9155.76 16637.9 8614.11" stroke="#27FD07" stroke-width="17" stroke-miterlimit="10"/>
<path d="M6399.89 18270.3C7396.07 17728.6 7707.88 18302.1 8704.06 17760.4C9700.25 17218.8 9388.44 16645.3 10384.3 16103.8C11380.2 15562.3 11692.3 16135.7 12688.5 15594C13684.7 15052.4 13372.9 14478.9 14369.1 13937.2C15365.2 13395.6 15677.1 13969.1 16673.5 13427.3C17670 12885.5 17357.9 12312.1 18354.1 11770.5" stroke="#27FD07" stroke-width="17" stroke-miterlimit="10"/>
<path d="M159.965 6793.97C1156.15 6252.32 1467.95 6825.79 2464.14 6284.14C3460.32 5742.49 3148.51 5169.03 4144.41 4627.54C5140.3 4086.04 5452.4 4659.35 6448.58 4117.71C7444.76 3576.06 7132.95 3002.59 8129.14 2460.95C9125.32 1919.3 9437.13 2492.76 10433.6 1950.96C11430.1 1409.16 11118 835.848 12114.2 294.201" stroke="#27FD07" stroke-width="17" stroke-miterlimit="10"/>
<path d="M2655.68 11384C3651.86 10842.4 3964.3 11417 4960.49 10875.4C5956.67 10333.7 5644.23 9759.08 6640.12 9217.59C7636.02 8676.1 7948.75 9250.57 8944.93 8708.93C9941.11 8167.28 9628.67 7592.65 10624.9 7051C11621 6509.35 11933.5 7083.98 12929.9 6542.18C13926.4 6000.38 13613.7 5425.9 14609.9 4884.26" stroke="#27FD07" stroke-width="17" stroke-miterlimit="10"/>
<path d="M1407.82 9089C2404 8547.35 2715.81 9120.81 3711.99 8579.17C4708.17 8037.52 4396.37 7464.05 5392.26 6922.56C6388.16 6381.07 6700.25 6954.38 7696.43 6412.73C8692.62 5871.09 8380.81 5297.62 9376.99 4755.97C10373.2 4214.33 10685 4787.79 11681.4 4245.99C12677.9 3704.19 12365.8 3130.88 13362 2589.23" stroke="#27FD07" stroke-width="17" stroke-miterlimit="10"/>
<path d="M3903.54 13679.1C4899.73 13137.4 5212.17 13712 6208.35 13170.4C7204.53 12628.7 6892.09 12054.1 7887.99 11512.6C8883.88 10971.1 9196.61 11545.6 10192.8 11004C11189 10462.3 10876.5 9887.68 11872.7 9346.03C12868.9 8804.38 13181.3 9379.01 14177.8 8837.21C15174.3 8295.41 14861.5 7720.93 15857.7 7179.28" stroke="#27FD07" stroke-width="17" stroke-miterlimit="10"/>
<path d="M5619.74 16835.4C6615.92 16293.8 6927.73 16867.3 7923.91 16325.6C8920.1 15784 8608.29 15210.5 9604.18 14669C10600.1 14127.5 10912.2 14700.8 11908.4 14159.2C12904.5 13617.5 12592.7 13044.1 13588.9 12502.4C14585.1 11960.8 14896.9 12534.2 15893.4 11992.4C16889.8 11450.6 16577.7 10877.3 17573.9 10335.7" stroke="#27FD07" stroke-width="17" stroke-miterlimit="10"/>
<path d="M784.213 7942.06C1780.4 7400.42 2092.2 7973.88 3088.38 7432.24C4084.57 6890.59 3772.76 6317.12 4768.66 5775.63C5764.55 5234.14 6076.64 5807.45 7072.83 5265.8C8069.01 4724.15 7757.2 4150.69 8753.38 3609.04C9749.57 3067.39 10061.4 3640.86 11057.8 3099.06C12054.3 2557.25 11742.2 1983.94 12738.4 1442.3" stroke="#27FD07" stroke-width="17" stroke-miterlimit="10"/>
<path d="M3279.93 12532.1C4276.11 11990.5 4587.92 12563.9 5584.1 12022.3C6580.28 11480.6 6268.48 10907.2 7264.37 10365.7C8260.27 9824.19 8572.36 10397.5 9568.54 9855.86C10564.7 9314.21 10252.9 8740.74 11249.1 8199.1C12245.3 7657.45 12557.1 8230.91 13553.6 7689.11C14550 7147.31 14237.9 6574 15234.1 6032.35" stroke="#27FD07" stroke-width="17" stroke-miterlimit="10"/>
<path d="M4995.5 15687.3C5991.68 15145.7 6304.12 15720.3 7300.3 15178.7C8296.49 14637 7984.05 14062.4 8979.94 13520.9C9975.84 12979.4 10288.6 13553.9 11284.7 13012.2C12280.9 12470.6 11968.5 11896 12964.7 11354.3C13960.9 10812.7 14273.3 11387.3 15269.8 10845.5C16266.2 10303.7 15953.5 9729.23 16949.7 9187.58" stroke="#27FD07" stroke-width="17" stroke-miterlimit="10"/>
<path d="M2032.07 10237.1C3028.25 9695.45 3340.06 10268.9 4336.24 9727.26C5332.42 9185.62 5020.62 8612.15 6016.51 8070.66C7012.41 7529.17 7324.5 8102.48 8320.68 7560.83C9316.87 7019.18 9005.06 6445.72 10001.2 5904.07C10997.4 5362.42 11309.2 5935.89 12305.7 5394.09C13302.2 4852.28 12990.1 4278.97 13986.3 3737.33" stroke="#27FD07" stroke-width="17" stroke-miterlimit="10"/>
<path d="M4527.79 14827.1C5523.97 14285.5 5835.78 14859 6831.96 14317.3C7828.14 13775.7 7516.34 13202.2 8512.23 12660.7C9508.13 12119.2 9820.22 12692.5 10816.4 12150.9C11812.6 11609.2 11500.8 11035.8 12497 10494.1C13493.1 9952.47 13804.9 10525.9 14801.4 9984.14C15797.9 9442.33 15485.8 8869.02 16482 8327.38" stroke="#27FD07" stroke-width="17" stroke-miterlimit="10"/>
<path d="M6243.99 17983.5C7240.17 17441.9 7551.98 18015.4 8548.16 17473.7C9544.34 16932.1 9232.54 16358.6 10228.4 15817.1C11224.3 15275.6 11536.4 15848.9 12532.6 15307.3C13528.8 14765.6 13217 14192.2 14213.2 13650.5C15209.3 13108.9 15521.2 13682.3 16517.6 13140.5C17514.1 12598.7 17202 12025.4 18198.2 11483.8" stroke="#27FD07" stroke-width="17" stroke-miterlimit="10"/>
<path d="M471.771 7367.43C1467.95 6825.79 1780.39 7400.42 2776.58 6858.77C3772.76 6317.12 3460.32 5742.49 4456.21 5201C5452.11 4659.51 5764.84 5233.98 6761.02 4692.34C7757.2 4150.69 7444.76 3576.06 8440.94 3034.41C9437.13 2492.76 9749.57 3067.39 10746 2525.59C11742.5 1983.79 11429.8 1409.31 12426 867.666" stroke="#27FD07" stroke-width="17" stroke-miterlimit="10"/>
<path d="M2968.12 11958.7C3964.31 11417 4276.11 11990.5 5272.29 11448.8C6268.48 10907.2 5956.67 10333.7 6952.57 9792.22C7948.46 9250.73 8260.55 9824.04 9256.74 9282.39C10252.9 8740.74 9941.11 8167.28 10937.3 7625.63C11933.5 7083.98 12245.3 7657.45 13241.8 7115.65C14238.2 6573.84 13926.1 6000.53 14922.3 5458.89" stroke="#27FD07" stroke-width="17" stroke-miterlimit="10"/>
<path d="M1719.63 9662.46C2715.81 9120.81 3028.25 9695.44 4024.43 9153.8C5020.62 8612.15 4708.18 8037.52 5704.07 7496.03C6699.97 6954.54 7012.69 7529.01 8008.88 6987.36C9005.06 6445.72 8692.62 5871.09 9688.8 5329.44C10685 4787.79 10997.4 5362.42 11993.9 4820.62C12990.4 4278.82 12677.6 3704.34 13673.8 3162.69" stroke="#27FD07" stroke-width="17" stroke-miterlimit="10"/>
<path d="M4215.98 14253.7C5212.16 13712 5523.97 14285.5 6520.15 13743.9C7516.34 13202.2 7204.53 12628.7 8200.43 12087.2C9196.32 11545.8 9508.41 12119.1 10504.6 11577.4C11500.8 11035.8 11189 10462.3 12185.2 9920.66C13181.3 9379.01 13493.1 9952.48 14489.6 9410.67C15486.1 8868.87 15174 8295.56 16170.2 7753.91" stroke="#27FD07" stroke-width="17" stroke-miterlimit="10"/>
<path d="M5931.55 17408.9C6927.73 16867.3 7240.17 17441.9 8236.36 16900.2C9232.54 16358.6 8920.1 15784 9915.99 15242.5C10911.9 14701 11224.6 15275.5 12220.8 14733.8C13217 14192.2 12904.5 13617.5 13900.7 13075.9C14896.9 12534.2 15209.3 13108.9 16205.8 12567.1C17202.3 12025.3 16889.6 11450.8 17885.7 10909.1" stroke="#27FD07" stroke-width="17" stroke-miterlimit="10"/>
<path d="M1096.02 8515.53C2092.2 7973.88 2404.01 8547.35 3400.19 8005.7C4396.37 7464.05 4084.56 6890.59 5080.46 6349.1C6076.36 5807.61 6388.45 6380.92 7384.63 5839.27C8380.81 5297.62 8069.01 4724.16 9065.19 4182.51C10061.4 3640.86 10373.2 4214.33 11369.6 3672.52C12366.1 3130.72 12054 2557.41 13050.2 2015.76" stroke="#27FD07" stroke-width="17" stroke-miterlimit="10"/>
<path d="M3591.73 13105.6C4587.91 12563.9 4899.72 13137.4 5895.9 12595.8C6892.09 12054.1 6580.28 11480.6 7576.18 10939.2C8572.07 10397.7 8884.16 10971 9880.35 10429.3C10876.5 9887.67 10564.7 9314.21 11560.9 8772.56C12557.1 8230.91 12868.9 8804.38 13865.4 8262.58C14861.8 7720.77 14549.7 7147.46 15545.9 6605.82" stroke="#27FD07" stroke-width="17" stroke-miterlimit="10"/>
<path d="M5307.94 16262C6304.12 15720.3 6615.92 16293.8 7612.11 15752.1C8608.29 15210.5 8296.48 14637 9292.38 14095.5C10288.3 13554.1 10600.4 14127.4 11596.5 13585.7C12592.7 13044.1 12280.9 12470.6 13277.1 11929C14273.3 11387.3 14585.1 11960.8 15581.6 11419C16578 10877.2 16265.9 10303.9 17262.1 9762.21" stroke="#27FD07" stroke-width="17" stroke-miterlimit="10"/>
<path d="M2343.87 10810.6C3340.06 10268.9 3651.86 10842.4 4648.04 10300.7C5644.23 9759.08 5332.42 9185.62 6328.32 8644.13C7324.21 8102.63 7636.3 8675.94 8632.49 8134.3C9628.67 7592.65 9316.86 7019.18 10313 6477.54C11309.2 5935.89 11621 6509.35 12617.5 5967.55C13614 5425.75 13301.9 4852.44 14298.1 4310.79" stroke="#27FD07" stroke-width="17" stroke-miterlimit="10"/>
<path d="M4839.59 15400.6C5835.78 14859 6148.22 15433.6 7144.4 14891.9C8140.58 14350.3 7828.14 13775.7 8824.04 13234.2C9819.93 12692.7 10132.7 13267.2 11128.8 12725.5C12125 12183.9 11812.6 11609.2 12808.8 11067.6C13804.9 10525.9 14117.4 11100.6 15113.9 10558.8C16110.3 10017 15797.6 9442.49 16793.8 8900.85" stroke="#27FD07" stroke-width="17" stroke-miterlimit="10"/>
<path d="M6555.79 18557C7551.98 18015.4 7863.78 18588.8 8859.97 18047.2C9856.15 17505.5 9544.34 16932.1 10540.2 16390.6C11536.1 15849.1 11848.2 16422.4 12844.4 15880.7C13840.6 15339.1 13528.8 14765.6 14525 14224C15521.1 13682.3 15833 14255.8 16829.4 13714C17825.9 13172.2 17513.8 12598.9 18510 12057.2" stroke="#27FD07" stroke-width="17" stroke-miterlimit="10"/>
</svg>
